<?xml version="1.0" encoding="UTF-8" standalone="no"?>
<!-- Created with Inkscape (http://www.inkscape.org/) -->

<svg
   xmlns:dc="http://purl.org/dc/elements/1.1/"
   xmlns:cc="http://creativecommons.org/ns#"
   xmlns:rdf="http://www.w3.org/1999/02/22-rdf-syntax-ns#"
   xmlns:svg="http://www.w3.org/2000/svg"
   xmlns="http://www.w3.org/2000/svg"
   xmlns:sodipodi="http://sodipodi.sourceforge.net/DTD/sodipodi-0.dtd"
   xmlns:inkscape="http://www.inkscape.org/namespaces/inkscape"
   width="483.56448"
   height="290.78687"
   id="svg2"
   version="1.1"
   inkscape:version="0.48.3.1 r9886"
   sodipodi:docname="arrow.svg">
  <defs
     id="defs4" />
  <sodipodi:namedview
     id="base"
     pagecolor="#ffffff"
     bordercolor="#666666"
     borderopacity="1.0"
     inkscape:pageopacity="0.0"
     inkscape:pageshadow="2"
     inkscape:zoom="0.7"
     inkscape:cx="342.18516"
     inkscape:cy="77.270958"
     inkscape:document-units="px"
     inkscape:current-layer="layer1"
     showgrid="false"
     showguides="true"
     inkscape:guide-bbox="true"
     inkscape:window-width="1312"
     inkscape:window-height="744"
     inkscape:window-x="54"
     inkscape:window-y="24"
     inkscape:window-maximized="1"
     fit-margin-top="20"
     fit-margin-left="20"
     fit-margin-right="20"
     fit-margin-bottom="20" />
  <metadata
     id="metadata7">
    <rdf:RDF>
      <cc:Work
         rdf:about="">
        <dc:format>image/svg+xml</dc:format>
        <dc:type
           rdf:resource="http://purl.org/dc/dcmitype/StillImage" />
        <dc:title></dc:title>
      </cc:Work>
    </rdf:RDF>
  </metadata>
  <g
     inkscape:label="Layer 1"
     inkscape:groupmode="layer"
     id="layer1"
     transform="translate(-133.56947,-386.99439)">
    <g
       id="g3121"
       transform="matrix(-1,0,0,-1,600.92376,758.28544)">
      <g
         id="g3081">
	<path
   id="path3083"
   d="m 225.923,354.706 c -8.098,0 -16.195,-3.092 -22.369,-9.263 L 9.27,151.157 c -12.359,-12.359 -12.359,-32.397 0,-44.751 12.354,-12.354 32.388,-12.354 44.748,0 L 225.923,278.321 397.829,106.412 c 12.359,-12.354 32.391,-12.354 44.744,0 12.365,12.354 12.365,32.392 0,44.751 L 248.292,345.449 c -6.177,6.172 -14.274,9.257 -22.369,9.257 z"
   inkscape:connector-curvature="0" />

</g>
      <g
         id="g3085">
</g>
      <g
         id="g3087">
</g>
      <g
         id="g3089">
</g>
      <g
         id="g3091">
</g>
      <g
         id="g3093">
</g>
      <g
         id="g3095">
</g>
      <g
         id="g3097">
</g>
      <g
         id="g3099">
</g>
      <g
         id="g3101">
</g>
      <g
         id="g3103">
</g>
      <g
         id="g3105">
</g>
      <g
         id="g3107">
</g>
      <g
         id="g3109">
</g>
      <g
         id="g3111">
</g>
      <g
         id="g3113">
</g>
    </g>
    <path
       style="fill:#ffffff;fill-opacity:0.59817349;stroke:#eee5b1;stroke-width:1;stroke-opacity:0"
       d="m 379.90976,404.70093 c 2.54433,0.42427 6.63545,1.77156 9.09137,2.99398 3.18432,1.58497 33.48445,31.24741 105.6193,103.39647 97.80613,97.82539 101.22789,101.37448 103.38772,107.2348 4.37004,11.85737 1.09791,26.10115 -7.78842,33.90346 -6.81054,5.97973 -11.06083,7.49831 -20.98673,7.49831 -7.56824,0 -9.85293,-0.39653 -13.63705,-2.36684 -3.13467,-1.63215 -31.90471,-29.69025 -92.68432,-90.39077 l -88.13864,-88.02394 -88.63805,88.47891 c -99.35791,99.1795 -92.68634,93.3886 -106.73955,92.64962 -16.72843,-0.87965 -29.27331,-13.76036 -29.34639,-30.132 -0.0613,-13.72917 -7.1897,-5.71396 105.39781,-118.50947 55.90979,-56.01307 103.26629,-102.68204 105.23668,-103.70883 1.97039,-1.02679 5.37965,-2.17182 7.57614,-2.54451 2.1965,-0.37268 4.67548,-0.80653 5.50886,-0.96411 0.83337,-0.15756 3.59695,0.0606 6.14127,0.48492 z"
       id="path3140"
       inkscape:connector-curvature="0" />
    <path
       style="fill:#ffffff;fill-opacity:0.59817349;stroke:#eee5b1;stroke-width:1;stroke-opacity:0"
       d="m 384.34817,406.47563 c 5.95911,1.98336 12.99326,8.67836 98.34777,93.60611 75.61385,75.23578 111.96859,112.76203 114.37358,118.05918 2.47961,5.46149 2.57068,15.65494 0.20021,22.40862 -1.94437,5.53969 -8.82325,13.25181 -14.49887,16.2551 -2.6167,1.38464 -5.72526,1.81631 -13.03278,1.80979 -9.92447,-0.009 -15.10614,-0.50552 -14.81514,-1.42003 0.0924,-0.29025 -6.19603,-6.62625 -13.97421,-14.08001 -7.77817,-7.45376 -48.33505,-47.65839 -90.1264,-89.34364 l -75.98426,-75.79134 -84.12492,83.88842 c -46.26869,46.13862 -87.65225,86.67423 -91.96344,90.07913 -9.12584,7.20741 -12.67408,8.46031 -20.7336,7.3211 -7.88356,-1.11433 -12.40361,-3.15809 -17.62114,-7.96745 -6.18512,-5.70124 -9.08244,-12.01381 -9.66249,-21.05232 -0.45706,-7.12202 -0.34126,-7.60607 3.03688,-12.6937 6.17361,-9.29771 29.78959,-33.58206 119.16516,-122.53766 l 87.35422,-86.94375 6.04853,-1.69714 c 7.43452,-2.08601 11.5118,-2.06347 18.0109,0.0996 l 0,-10e-6 z"
       id="path3142"
       inkscape:connector-curvature="0" />
    <path
       style="fill:#ffffff;fill-opacity:0.59817349;stroke:#eee5b1;stroke-width:1;stroke-opacity:0"
       d="m 385.73024,407.79692 c 7.50201,3.82382 169.01164,163.5657 199.9164,197.72827 9.90227,10.94611 11.34821,13.00573 11.95058,17.02258 0.984,6.5618 -0.0306,16.52482 -2.08792,20.50331 -2.67835,5.17935 -11.15396,12.92882 -15.44309,14.12002 -4.62215,1.28368 -19.43409,1.38461 -22.6696,0.15447 -1.30431,-0.49589 -42.94238,-41.24246 -92.52905,-90.54792 l -90.15758,-89.64629 -80.02026,79.70614 c -85.8324,85.49547 -98.33485,97.41408 -105.51987,100.59235 -12.37517,5.47413 -31.38247,-4.1331 -36.06427,-18.22867 -1.96814,-5.92551 -2.23591,-15.21161 -0.53138,-18.42781 3.83019,-7.22701 22.03459,-26.14857 110.4826,-114.83504 75.99173,-76.19661 97.74997,-97.46988 100.5599,-98.31855 1.97219,-0.59565 6.76778,-1.30244 10.65686,-1.57062 5.92414,-0.40852 7.78242,-0.12503 11.45668,1.74776 l 0,0 z"
       id="path3144"
       inkscape:connector-curvature="0" />
    <path
       style="fill:#ffffff;fill-opacity:0.59817349;stroke:#eee5b1;stroke-width:1;stroke-opacity:0"
       d="m 384.37509,407.58559 c 3.70537,1.64963 40.74262,37.36918 106.44123,102.65427 64.33628,63.93134 93.83551,94.14593 101.99476,104.46816 4.15234,5.2531 4.20105,5.41051 4.19549,13.55786 -0.008,11.23002 -1.22483,14.87362 -6.92271,20.72341 -7.18204,7.37353 -9.57695,8.30157 -21.45968,8.31567 l -10.15892,0.0121 -10.53693,-9.75739 c -5.7953,-5.36657 -47.17618,-46.10135 -91.9575,-90.52175 l -81.42058,-80.76436 -78.42517,78.13177 c -80.22661,79.92648 -100.41354,99.25138 -106.88806,102.32375 -2.72918,1.29508 -5.28693,1.61984 -9.86393,1.25244 -15.60489,-1.25261 -26.88004,-13.26339 -27.12084,-28.89031 -0.10393,-6.74439 0.0574,-7.23905 4.11035,-12.60722 8.57193,-11.35344 190.2091,-194.47243 203.44196,-205.10168 4.50344,-3.61738 5.13986,-3.8155 13.63706,-4.24529 4.90224,-0.24795 9.8223,-0.0461 10.93347,0.44861 l 0,0 z"
       id="path3146"
       inkscape:connector-curvature="0" />
    <path
       style="fill:#ffffff;fill-opacity:0.59817349;stroke:#eee5b1;stroke-width:1;stroke-opacity:0"
       d="m 400.00717,422.05866 c 20.14291,18.59699 161.02107,158.65636 178.10004,177.06491 19.3821,20.89098 18.43521,19.31032 18.21379,30.40496 -0.21763,10.90503 -1.90749,15.13661 -8.37983,20.98398 -5.54371,5.00841 -7.86556,5.77749 -19.42942,6.43575 l -9.81262,0.55856 -20.99703,-20.62946 c -11.54836,-11.3462 -52.95787,-52.1767 -92.02112,-90.73445 l -71.02408,-70.10499 -17.86934,17.60243 c -9.82814,9.68134 -41.05234,40.60469 -69.38712,68.71857 -63.64777,63.15155 -89.27888,87.8585 -95.24328,91.80916 -3.9644,2.62591 -5.52519,3.04589 -11.24845,3.02679 -15.23872,-0.0509 -26.55702,-10.83775 -28.04049,-26.72392 -0.53306,-5.70837 -0.30639,-6.94508 1.99155,-10.86624 5.74754,-9.80742 202.26148,-207.4992 209.10552,-210.35882 2.29234,-0.9578 6.84538,-1.53652 12.08858,-1.53652 l 8.41118,0 15.54212,14.34929 0,0 z"
       id="path3148"
       inkscape:connector-curvature="0" />
    <path
       style="fill:#ffffff;fill-opacity:0.59817349;stroke:#eee5b1;stroke-width:1;stroke-opacity:0"
       d="M 412.62638,434.61528 C 453.63831,474.01 579.05216,599.60149 587.9266,610.16382 l 7.57037,9.01023 0,10.26371 c 0,9.65459 -0.17985,10.55109 -3.03046,15.10613 -1.66675,2.66334 -4.89995,6.1858 -7.18489,7.82769 -3.59963,2.58659 -5.5835,3.13347 -14.85542,4.09506 l -10.70097,1.10981 -5.34764,-4.92897 c -2.9412,-2.71093 -44.30717,-43.35547 -91.92438,-90.3212 -47.6172,-46.96573 -87.02689,-85.54228 -87.57709,-85.72568 -0.5502,-0.1834 -33.86708,32.25439 -74.03752,72.08399 -76.26087,75.61378 -105.31199,103.57886 -110.4128,106.28508 -5.12174,2.71733 -15.23786,2.17378 -22.10895,-1.18793 -9.01983,-4.413 -13.72736,-11.90669 -15.2928,-24.34388 -1.09178,-8.67404 -1.94529,-7.71777 91.88643,-102.94822 54.60778,-55.42181 113.11981,-112.98543 118.29124,-116.37387 1.49433,-0.97913 5.8347,-1.75146 11.77032,-2.09442 l 9.40305,-0.54332 28.25129,27.13725 z"
       id="path3150"
       inkscape:connector-curvature="0" />
    <path
       style="fill:#ffffff;fill-opacity:0.59817349;stroke:#eee5b1;stroke-width:1;stroke-opacity:0"
       d="m 402.68331,425.1345 c 51.96218,49.54744 173.73475,171.48633 187.63465,187.89093 5.55838,6.55998 6.43098,10.12058 5.22958,21.3391 -0.82448,7.69887 -4.46477,14.0155 -10.4792,18.1835 -3.13811,2.17472 -5.82448,2.88703 -14.57614,3.86501 l -10.729,1.19893 -5.36662,-4.96126 c -2.95165,-2.72869 -44.37998,-43.3878 -92.06296,-90.35357 -47.68299,-46.96577 -87.02043,-85.51172 -87.41655,-85.65764 -0.39612,-0.14593 -32.75004,31.37181 -71.89762,70.03942 -77.7085,76.75577 -105.13104,103.18671 -111.27934,107.25546 -3.25246,2.15238 -5.196,2.65133 -10.32766,2.65133 -14.63116,0 -24.73148,-8.6768 -27.83708,-23.91376 -1.50939,-7.4055 -0.58494,-10.24698 5.78046,-17.7675 12.62485,-14.91582 131.46138,-135.59716 173.28484,-175.97489 28.55739,-27.57022 30.34558,-29.10312 35.15252,-30.13403 2.78553,-0.59738 7.6636,-1.08616 10.84017,-1.08616 l 5.77558,0 18.27437,17.42513 z"
       id="path3152"
       inkscape:connector-curvature="0" />
    <g
       id="g3235"
       transform="matrix(-1,0,0,-1,750.00001,1064.7244)">
      <path
         inkscape:connector-curvature="0"
         id="path3154"
         d="M 345.92042,638.21269 C 273.36467,567.95529 163.51604,457.55638 157.43872,448.7868 c -4.92008,-7.09967 -4.38618,-21.86989 1.08137,-29.91611 3.96145,-5.82981 9.47444,-8.92557 18.20798,-10.22452 14.62477,-2.17517 8.82227,-6.38962 59.27912,43.05533 24.80423,24.3068 66.28058,65.05323 92.16966,90.54762 l 47.07106,46.35346 14.38141,-14.00279 c 7.90977,-7.70152 42.56466,-41.78079 77.01087,-75.73169 94.86819,-93.50409 91.29884,-90.35741 102.47571,-90.34075 8.40312,0.0125 15.426,3.12033 20.53256,9.08619 6.44696,7.53182 8.87859,19.30251 5.38373,26.06081 -2.40433,4.64947 -24.89244,28.32005 -86.05684,90.5819 -70.59507,71.86174 -118.90001,118.73955 -124.57947,120.89887 -1.42041,0.54004 -6.22788,1.23915 -10.68329,1.55357 l -8.10074,0.57167 -19.69143,-19.06767 0,0 z"
         style="fill:#ffffff;fill-opacity:0.59817349;stroke:#eee5b1;stroke-width:1;stroke-opacity:0" />
    </g>
  </g>
</svg>
